<svg viewBox="0 0 32 32" height="32" width="32" xmlns="http://www.w3.org/2000/svg"><g transform="matrix(1.3333333333333333,0,0,1.3333333333333333,0,0)"><path d="M12,8.89a3.88,3.88,0,0,0-.67-2.29A4.44,4.44,0,0,0,7.57,5H1a.5.5,0,0,0-.5.5v14A.5.5,0,0,0,1,20H7.09a9.88,9.88,0,0,0,2.07-.2A4,4,0,0,0,10.81,19a4.12,4.12,0,0,0,1-1.18,4.48,4.48,0,0,0,.65-2.39,4.05,4.05,0,0,0-.57-2.2A3.27,3.27,0,0,0,10.24,12a3.51,3.51,0,0,0,1.12-.85A3.4,3.4,0,0,0,12,8.89ZM3.5,8.5A.5.5,0,0,1,4,8H7.5a1.5,1.5,0,1,1,0,3H4a.5.5,0,0,1-.5-.5Zm6,6.5a2,2,0,0,1-2,2H4a.5.5,0,0,1-.5-.5v-3A.5.5,0,0,1,4,13H7.5A2,2,0,0,1,9.5,15Z" fill="currentColor" stroke="none" stroke-linecap="round" stroke-linejoin="round" stroke-width="0"></path><path d="M15.500 4.000 L21.500 4.000 L21.500 6.000 L15.500 6.000 Z" fill="currentColor" stroke="none" stroke-linecap="round" stroke-linejoin="round" stroke-width="0"></path><path d="M23,15a.5.5,0,0,0,.5-.5,12,12,0,0,0-.09-1.65,5.4,5.4,0,0,0-.84-2.24A4.32,4.32,0,0,0,20.73,9,4.77,4.77,0,0,0,18.5,8.5a5.64,5.64,0,0,0-4,1.5A6,6,0,0,0,13,14.32a5.32,5.32,0,0,0,1.62,4.34A6.1,6.1,0,0,0,18.5,20a5.06,5.06,0,0,0,4.61-2.22.5.5,0,0,0-.42-.78h-2a.5.5,0,0,0-.35.14l-.07.06a3.12,3.12,0,0,1-1.81.5,2.76,2.76,0,0,1-1.53-.41,2.37,2.37,0,0,1-1-1.7.5.5,0,0,1,.49-.59Zm-6.53-2a.43.43,0,0,1-.42-.53,2.5,2.5,0,0,1,4.89,0,.43.43,0,0,1-.42.53Z" fill="currentColor" stroke="none" stroke-linecap="round" stroke-linejoin="round" stroke-width="0"></path></g></svg>