<svg viewBox="0 0 32 32" height="32" width="32" xmlns="http://www.w3.org/2000/svg"><g transform="matrix(1.3333333333333333,0,0,1.3333333333333333,0,0)"><path d="M24,12A12,12,0,0,0,6.28,1.45l-.05,0A12.09,12.09,0,0,0,0,12a11.94,11.94,0,0,0,2.71,7.58l0,0h0A12,12,0,0,0,24,12ZM20.07,6.12A9.93,9.93,0,0,1,22,11.65c-.88-.09-1.82-.14-2.62-.14a24.12,24.12,0,0,0-4.17.38c-.27-.69-.56-1.37-.89-2A23.88,23.88,0,0,0,20.07,6.12ZM18.74,4.64a21.88,21.88,0,0,1-5.42,3.47A23.94,23.94,0,0,0,8.65,2.59a9.9,9.9,0,0,1,10.09,2ZM6.68,3.55a22,22,0,0,1,4.75,5.3A22,22,0,0,1,4.35,10c-.71,0-1.42,0-2.13-.11A10,10,0,0,1,6.68,3.55ZM2,11.92c.78.08,1.56.13,2.34.13a23.93,23.93,0,0,0,8.09-1.42q.43.84.78,1.71a23.78,23.78,0,0,0-9.59,5.11A9.9,9.9,0,0,1,2,11.92ZM4.87,19a21.79,21.79,0,0,1,9-4.78,22.1,22.1,0,0,1,.94,6.39c0,.33,0,.66,0,1A9.94,9.94,0,0,1,4.87,19Zm12,1.76s0-.1,0-.15a24.13,24.13,0,0,0-1-6.8,22.1,22.1,0,0,1,3.5-.3c.77,0,1.66.05,2.49.14A10,10,0,0,1,16.82,20.76Z" fill="currentColor" stroke="none" stroke-linecap="round" stroke-linejoin="round" stroke-width="0"></path></g></svg>