<svg viewBox="0 0 32 32" height="32" width="32" xmlns="http://www.w3.org/2000/svg"><g transform="matrix(2.2857142857142856,0,0,2.2857142857142856,0,0)"><path d="M14,1.539A1.54,1.54,0,0,0,12.462,0H1.538A1.54,1.54,0,0,0,0,1.539V12.461A1.54,1.54,0,0,0,1.538,14H6.507a.25.25,0,0,0,.25-.25V9.012a.25.25,0,0,0-.25-.25H6.115A.615.615,0,0,1,5.5,8.147V7.384a.615.615,0,0,1,.615-.616h.392a.25.25,0,0,0,.25-.25V5.6A2.321,2.321,0,0,1,9.147,3c.212,0,.693.013,1.15.02a.614.614,0,0,1,.6.615v.744A.615.615,0,0,1,10.286,5H9.8c-.38,0-.761,0-.761.839v.685a.25.25,0,0,0,.25.25h.46a.616.616,0,0,1,.615.616v.763a.615.615,0,0,1-.615.615h-.46a.25.25,0,0,0-.25.25V13.75a.25.25,0,0,0,.25.25h3.176A1.54,1.54,0,0,0,14,12.461Z" fill="currentColor" stroke="none" stroke-linecap="round" stroke-linejoin="round" stroke-width="0"></path></g></svg>