<svg viewBox="0 0 32 32" height="32" width="32" xmlns="http://www.w3.org/2000/svg"><g transform="matrix(1.3333333333333333,0,0,1.3333333333333333,0,0)"><path d="M12,3.86a6.43,6.43,0,0,0-5.45,9.83,1,1,0,1,0,1.69-1.06,4.43,4.43,0,1,1,7.5,0,1,1,0,1,0,1.69,1.07A6.43,6.43,0,0,0,12,3.86Z" fill="currentColor" stroke="none" stroke-linecap="round" stroke-linejoin="round" stroke-width="0"></path><path d="M12,0a10.5,10.5,0,0,0-7.73,17.6,1,1,0,0,0,1.47-1.35,8.5,8.5,0,1,1,12.54,0,1,1,0,1,0,1.48,1.35A10.5,10.5,0,0,0,12,0Z" fill="currentColor" stroke="none" stroke-linecap="round" stroke-linejoin="round" stroke-width="0"></path><path d="M13.27,15H10.73a2,2,0,0,0-2,2.22l.56,5a2,2,0,0,0,2,1.78h1.42a2,2,0,0,0,2-1.78l.56-5a2,2,0,0,0-2-2.22Z" fill="currentColor" stroke="none" stroke-linecap="round" stroke-linejoin="round" stroke-width="0"></path><path d="M9.500 10.500 A2.500 2.500 0 1 0 14.500 10.500 A2.500 2.500 0 1 0 9.500 10.500 Z" fill="currentColor" stroke="none" stroke-linecap="round" stroke-linejoin="round" stroke-width="0"></path></g></svg>