<svg viewBox="0 0 32 32" height="32" width="32" xmlns="http://www.w3.org/2000/svg"><g transform="matrix(1.3333333333333333,0,0,1.3333333333333333,0,0)"><path d="M20.83,18.67,23,18.23a.9.9,0,0,0,.12-1.69,16.45,16.45,0,0,1-3-1.8,1.45,1.45,0,0,1,.1-2.39l1.32-.83a1.45,1.45,0,0,0-1.56-2.46l-.85.54a.36.36,0,0,1-.56-.31V6.55a6.55,6.55,0,0,0-13.09,0V9.28a.36.36,0,0,1-.56.31l-.85-.54a1.45,1.45,0,0,0-1.56,2.46l1.32.83a1.45,1.45,0,0,1,.1,2.39,16.45,16.45,0,0,1-3,1.8A.9.9,0,0,0,1,18.23l2.15.44a.9.9,0,0,1,.62,1.08,1.4,1.4,0,0,0,1.59,1.72l.68-.11a3.11,3.11,0,0,1,2.71.87A5.12,5.12,0,0,0,12,24a5.12,5.12,0,0,0,3.23-1.78,3.11,3.11,0,0,1,2.71-.87l.68.11a1.4,1.4,0,0,0,1.59-1.72A.9.9,0,0,1,20.83,18.67Z" fill="currentColor" stroke="none" stroke-linecap="round" stroke-linejoin="round" stroke-width="0"></path></g></svg>