<svg viewBox="0 0 32 32" height="32" width="32" xmlns="http://www.w3.org/2000/svg"><g transform="matrix(1.3333333333333333,0,0,1.3333333333333333,0,0)"><path d="M20.66,10.71a3.31,3.31,0,0,0-.68.07,5.46,5.46,0,0,0-5.38-4.4,5.56,5.56,0,0,0-2,.37.83.83,0,0,0-.6.8v9a.83.83,0,0,0,.8.83h7.85a3.33,3.33,0,0,0,0-6.66Z" fill="currentColor" stroke="none" stroke-linecap="round" stroke-linejoin="round" stroke-width="0"></path><path d="M9.74,7.11A.75.75,0,0,0,9,7.86v9a.75.75,0,0,0,1.5,0v-9A.75.75,0,0,0,9.74,7.11Z" fill="currentColor" stroke="none" stroke-linecap="round" stroke-linejoin="round" stroke-width="0"></path><path d="M6.75,8.61A.75.75,0,0,0,6,9.36v7.51a.75.75,0,0,0,1.5,0V9.36A.75.75,0,0,0,6.75,8.61Z" fill="currentColor" stroke="none" stroke-linecap="round" stroke-linejoin="round" stroke-width="0"></path><path d="M3.75,10.61a.75.75,0,0,0-.75.75v5.51a.75.75,0,0,0,1.5,0V11.36A.75.75,0,0,0,3.75,10.61Z" fill="currentColor" stroke="none" stroke-linecap="round" stroke-linejoin="round" stroke-width="0"></path><path d="M.76,11.61a.75.75,0,0,0-.75.75v4a.75.75,0,0,0,1.5,0v-4A.75.75,0,0,0,.76,11.61Z" fill="currentColor" stroke="none" stroke-linecap="round" stroke-linejoin="round" stroke-width="0"></path></g></svg>