<svg viewBox="0 0 32 32" height="32" width="32" xmlns="http://www.w3.org/2000/svg"><g transform="matrix(1.3333333333333333,0,0,1.3333333333333333,0,0)"><path d="M12,0A12,12,0,1,0,24,12,12,12,0,0,0,12,0Zm5,18.1a.9.9,0,0,1-1.27.08,8.37,8.37,0,0,0-4.27-1.78,8.4,8.4,0,0,0-4.57.52.9.9,0,1,1-.76-1.63,10.07,10.07,0,0,1,5.58-.67,10.05,10.05,0,0,1,5.2,2.21A.9.9,0,0,1,17,18.1Zm1.19-3.78a1,1,0,0,1-1.41.09,9.35,9.35,0,0,0-4.75-2A9.33,9.33,0,0,0,6.92,13a1,1,0,1,1-.85-1.81,11.21,11.21,0,0,1,6.25-.76,11.22,11.22,0,0,1,5.79,2.45A1,1,0,0,1,18.2,14.32Zm1.58-3.62a1.15,1.15,0,0,1-1.62.08,10.62,10.62,0,0,0-5.55-2.35,10.61,10.61,0,0,0-6,.72,1.15,1.15,0,0,1-1-2.07,13,13,0,0,1,7.29-.93A13,13,0,0,1,19.7,9.07,1.15,1.15,0,0,1,19.78,10.69Z" fill="currentColor" stroke="none" stroke-linecap="round" stroke-linejoin="round" stroke-width="0"></path></g></svg>