<?xml version="1.0" encoding="UTF-8"?>
<!DOCTYPE svg PUBLIC "-//W3C//DTD SVG 1.1//EN" "http://www.w3.org/Graphics/SVG/1.1/DTD/svg11.dtd">
<svg xmlns="http://www.w3.org/2000/svg" xmlns:xlink="http://www.w3.org/1999/xlink">
    <symbol id="plyr-airplay" viewBox="0 0 18 18"><path d="M16 1H2a1 1 0 00-1 1v10a1 1 0 001 1h3v-2H3V3h12v8h-2v2h3a1 1 0 001-1V2a1 1 0 00-1-1z"/><path d="M4 17h10l-5-6z"/></symbol>
    <symbol id="plyr-captions-off" viewBox="0 0 18 18"><path d="M1 1c-.6 0-1 .4-1 1v11c0 .6.4 1 1 1h4.6l2.7 2.7c.2.2.4.3.7.3.3 0 .5-.1.7-.3l2.7-2.7H17c.6 0 1-.4 1-1V2c0-.6-.4-1-1-1H1zm4.52 10.15c1.99 0 3.01-1.32 3.28-2.41l-1.29-.39c-.19.66-.78 1.45-1.99 1.45-1.14 0-2.2-.83-2.2-2.34 0-1.61 1.12-2.37 2.18-2.37 1.23 0 1.78.75 1.95 1.43l1.3-.41C8.47 4.96 7.46 3.76 5.5 3.76c-1.9 0-3.61 1.44-3.61 3.7 0 2.26 1.65 3.69 3.63 3.69zm7.57 0c1.99 0 3.01-1.32 3.28-2.41l-1.29-.39c-.19.66-.78 1.45-1.99 1.45-1.14 0-2.2-.83-2.2-2.34 0-1.61 1.12-2.37 2.18-2.37 1.23 0 1.78.75 1.95 1.43l1.3-.41c-.28-1.15-1.29-2.35-3.25-2.35-1.9 0-3.61 1.44-3.61 3.7 0 2.26 1.65 3.69 3.63 3.69z" fill-rule="evenodd" fill-opacity=".5"/></symbol>
    <symbol id="plyr-captions-on" viewBox="0 0 18 18"><path d="M1 1c-.6 0-1 .4-1 1v11c0 .6.4 1 1 1h4.6l2.7 2.7c.2.2.4.3.7.3.3 0 .5-.1.7-.3l2.7-2.7H17c.6 0 1-.4 1-1V2c0-.6-.4-1-1-1H1zm4.52 10.15c1.99 0 3.01-1.32 3.28-2.41l-1.29-.39c-.19.66-.78 1.45-1.99 1.45-1.14 0-2.2-.83-2.2-2.34 0-1.61 1.12-2.37 2.18-2.37 1.23 0 1.78.75 1.95 1.43l1.3-.41C8.47 4.96 7.46 3.76 5.5 3.76c-1.9 0-3.61 1.44-3.61 3.7 0 2.26 1.65 3.69 3.63 3.69zm7.57 0c1.99 0 3.01-1.32 3.28-2.41l-1.29-.39c-.19.66-.78 1.45-1.99 1.45-1.14 0-2.2-.83-2.2-2.34 0-1.61 1.12-2.37 2.18-2.37 1.23 0 1.78.75 1.95 1.43l1.3-.41c-.28-1.15-1.29-2.35-3.25-2.35-1.9 0-3.61 1.44-3.61 3.7 0 2.26 1.65 3.69 3.63 3.69z" fill-rule="evenodd"/></symbol>
    <symbol id="plyr-download" viewBox="0 0 18 18"><path d="M9 13c.3 0 .5-.1.7-.3L15.4 7 14 5.6l-4 4V1H8v8.6l-4-4L2.6 7l5.7 5.7c.2.2.4.3.7.3zm-7 2h14v2H2z"/></symbol>
    <symbol id="plyr-enter-fullscreen" viewBox="0 0 18 18"><path d="M10 3h3.6l-4 4L11 8.4l4-4V8h2V1h-7zM7 9.6l-4 4V10H1v7h7v-2H4.4l4-4z"/></symbol>
    <symbol id="plyr-exit-fullscreen" viewBox="0 0 18 18"><path d="M1 12h3.6l-4 4L2 17.4l4-4V17h2v-7H1zM16 .6l-4 4V1h-2v7h7V6h-3.6l4-4z"/></symbol>
    <symbol id="plyr-fast-forward" viewBox="0 0 16.81 19"><path d="M15.47,7.1a8.49,8.49,0,0,1,.46,1.12" fill="none" stroke="currentColor" stroke-linecap="round" stroke-linejoin="round"/><path d="M16.27,9.89a6.34,6.34,0,0,1,0,.76,8.18,8.18,0,0,1-.06,1" fill="none" stroke="currentColor" stroke-linecap="round" stroke-linejoin="round"/><path d="M15.83,13.36a8.45,8.45,0,0,1-.74,1.51" fill="none" stroke="currentColor" stroke-linecap="round" stroke-linejoin="round"/><path d="M14,16.26a7.43,7.43,0,0,1-1.32,1" fill="none" stroke="currentColor" stroke-linecap="round" stroke-linejoin="round"/><path d="M11,18.12a8.17,8.17,0,0,1-1.68.38" fill="none" stroke="currentColor" stroke-linecap="round" stroke-linejoin="round"/><path d="M7.53,18.5A7.93,7.93,0,0,1,8.4,2.7h1.76" fill="none" stroke="currentColor" stroke-linecap="round" stroke-linejoin="round"/><path d="M7.09,4.89,10.16,2.7,7.09.5" fill="none" stroke="currentColor" stroke-linecap="round" stroke-linejoin="round"/><path d="M5.5,13.86V8.63l-1.18.53A.31.31,0,0,1,3.86,9l0-.14A.35.35,0,0,1,4,8.35l1.76-.81a1,1,0,0,1,.45-.1c.16,0,.26.13.26.35v6.07a.32.32,0,0,1-.35.35H5.85A.32.32,0,0,1,5.5,13.86Z"/><path d="M8,13.74a.3.3,0,0,1,0-.49L8,13.12a.34.34,0,0,1,.49-.06,3.51,3.51,0,0,0,1.48.36c1.16,0,1.7-.67,1.7-1.48a1.41,1.41,0,0,0-1.56-1.36,2.67,2.67,0,0,0-1.33.35.45.45,0,0,1-.48,0l-.18-.08a.38.38,0,0,1-.25-.42l.17-2.69a.32.32,0,0,1,.36-.34h3.39a.32.32,0,0,1,.35.35v.14a.32.32,0,0,1-.35.35H9l-.15,2a2.15,2.15,0,0,1,1.47-.53,2.25,2.25,0,0,1,2.36,2.24c0,1.4-1,2.37-2.67,2.37A3.64,3.64,0,0,1,8,13.74Z"/></symbol>
    <symbol id="plyr-logo-vimeo" viewBox="0 0 18 18"><path d="M17 5.3c-.1 1.6-1.2 3.7-3.3 6.4-2.2 2.8-4 4.2-5.5 4.2-.9 0-1.7-.9-2.4-2.6C5 10.9 4.4 6 3 6c-.1 0-.5.3-1.2.8l-.8-1c.8-.7 3.5-3.4 4.7-3.5 1.2-.1 2 .7 2.3 2.5.3 2 .8 6.1 1.8 6.1.9 0 2.5-3.4 2.6-4 .1-.9-.3-1.9-2.3-1.1.8-2.6 2.3-3.8 4.5-3.8 1.7.1 2.5 1.2 2.4 3.3z"/></symbol>
    <symbol id="plyr-logo-youtube" viewBox="0 0 18 18"><path d="M16.8 5.8c-.2-1.3-.8-2.2-2.2-2.4C12.4 3 9 3 9 3s-3.4 0-5.6.4C2 3.6 1.3 4.5 1.2 5.8 1 7.1 1 9 1 9s0 1.9.2 3.2c.2 1.3.8 2.2 2.2 2.4C5.6 15 9 15 9 15s3.4 0 5.6-.4c1.4-.3 2-1.1 2.2-2.4.2-1.3.2-3.2.2-3.2s0-1.9-.2-3.2zM7 12V6l5 3-5 3z"/></symbol>
    <symbol id="plyr-muted" viewBox="0 0 18 18" fill="currentColor" stroke="currentColor"><g transform="matrix(0.75,0,0,0.75,0,0)"><path d="M23.25 9.375 18 14.625m0-5.25 5.25 5.25M5.821 9H1.5a.75.75 0 0 0-.75.75v4.5a.75.75 0 0 0 .75.75h4.321a8.254 8.254 0 0 0 6.854 5.209.751.751 0 0 0 .825-.746V4.537a.75.75 0 0 0-.825-.746A8.254 8.254 0 0 0 5.821 9z" fill="none" stroke-linecap="round" stroke-linejoin="round" stroke-width="1.5"></path></g></symbol>
    <symbol id="plyr-pause" viewBox="0 0 18 18"><path d="M6 1H3c-.6 0-1 .4-1 1v14c0 .6.4 1 1 1h3c.6 0 1-.4 1-1V2c0-.6-.4-1-1-1zm6 0c-.6 0-1 .4-1 1v14c0 .6.4 1 1 1h3c.6 0 1-.4 1-1V2c0-.6-.4-1-1-1h-3z"/></symbol>
    <symbol id="plyr-pip" viewBox="0 0 18 18"><path d="M13.293 3.293L7.022 9.564l1.414 1.414 6.271-6.271L17 7V1h-6z"/><path d="M13 15H3V5h5V3H2a1 1 0 00-1 1v12a1 1 0 001 1h12a1 1 0 001-1v-6h-2v5z"/></symbol>
    <symbol id="plyr-play" viewBox="0 0 18 18" fill="currentColor" stroke="currentColor"><g transform="matrix(1.2857142857142858,0,0,1.2857142857142858,0,0)"><path d="M13.126 5.605 2.241.163a1.54 1.54 0 0 0-2.23 1.378v10.918a1.54 1.54 0 0 0 2.23 1.378L13.126 8.4a1.559 1.559 0 0 0 0-2.79z" stroke-linecap="round" stroke-linejoin="round" stroke-width="0"></path></g></symbol>
    <symbol id="plyr-restart" viewBox="0 0 18 18"><path d="M9.7 1.2l.7 6.4 2.1-2.1c1.9 1.9 1.9 5.1 0 7-.9 1-2.2 1.5-3.5 1.5-1.3 0-2.6-.5-3.5-1.5-1.9-1.9-1.9-5.1 0-7 .6-.6 1.4-1.1 2.3-1.3l-.6-1.9C6 2.6 4.9 3.2 4 4.1 1.3 6.8 1.3 11.2 4 14c1.3 1.3 3.1 2 4.9 2 1.9 0 3.6-.7 4.9-2 2.7-2.7 2.7-7.1 0-9.9L16 1.9l-6.3-.7z"/></symbol>
    <symbol id="plyr-rewind" viewBox="0 0 16.81 19"><path d="M.88,8.22A7.32,7.32,0,0,1,1.34,7.1" fill="none" stroke="currentColor" stroke-linecap="round" stroke-linejoin="round"/><path d="M.56,11.63a8.18,8.18,0,0,1-.06-1,6.34,6.34,0,0,1,0-.76" fill="none" stroke="currentColor" stroke-linecap="round" stroke-linejoin="round"/><path d="M1.72,14.87A7.83,7.83,0,0,1,1,13.36" fill="none" stroke="currentColor" stroke-linecap="round" stroke-linejoin="round"/><path d="M4.16,17.31a7.5,7.5,0,0,1-1.33-1" fill="none" stroke="currentColor" stroke-linecap="round" stroke-linejoin="round"/><path d="M7.51,18.5a8,8,0,0,1-1.68-.38" fill="none" stroke="currentColor" stroke-linecap="round" stroke-linejoin="round"/><path d="M6.65,2.7H8.4a7.93,7.93,0,0,1,.88,15.8" fill="none" stroke="currentColor" stroke-linecap="round" stroke-linejoin="round"/><path d="M9.72.5,6.65,2.7,9.72,4.89" fill="none" stroke="currentColor" stroke-linecap="round" stroke-linejoin="round"/><path d="M5.5,13.86V8.63l-1.18.53A.31.31,0,0,1,3.86,9l0-.14A.35.35,0,0,1,4,8.35l1.76-.81a1,1,0,0,1,.45-.1c.16,0,.26.13.26.35v6.07a.32.32,0,0,1-.35.35H5.85A.32.32,0,0,1,5.5,13.86Z"/><path d="M8,13.74a.3.3,0,0,1,0-.49L8,13.12a.34.34,0,0,1,.49-.06,3.51,3.51,0,0,0,1.48.36c1.16,0,1.7-.67,1.7-1.48a1.41,1.41,0,0,0-1.56-1.36,2.67,2.67,0,0,0-1.33.35.45.45,0,0,1-.48,0l-.18-.08a.38.38,0,0,1-.25-.42l.17-2.69a.32.32,0,0,1,.36-.34h3.39a.32.32,0,0,1,.35.35v.14a.32.32,0,0,1-.35.35H9l-.15,2a2.15,2.15,0,0,1,1.47-.53,2.25,2.25,0,0,1,2.36,2.24c0,1.4-1,2.37-2.67,2.37A3.64,3.64,0,0,1,8,13.74Z"/></symbol>
    <symbol id="plyr-settings" viewBox="0 0 18 18" fill="currentColor" stroke="currentColor"><g transform="matrix(0.75,0,0,0.75,0,0)"><path d="M10.546 2.438a1.957 1.957 0 0 0 2.908 0L14.4 1.4a1.959 1.959 0 0 1 3.41 1.413l-.071 1.4a1.958 1.958 0 0 0 2.051 2.054l1.4-.071a1.959 1.959 0 0 1 1.41 3.41l-1.042.94a1.96 1.96 0 0 0 0 2.909l1.042.94a1.959 1.959 0 0 1-1.413 3.41l-1.4-.071a1.958 1.958 0 0 0-2.056 2.056l.071 1.4A1.959 1.959 0 0 1 14.4 22.6l-.941-1.041a1.959 1.959 0 0 0-2.908 0L9.606 22.6A1.959 1.959 0 0 1 6.2 21.192l.072-1.4a1.958 1.958 0 0 0-2.056-2.056l-1.4.071A1.958 1.958 0 0 1 1.4 14.4l1.041-.94a1.96 1.96 0 0 0 0-2.909L1.4 9.606A1.958 1.958 0 0 1 2.809 6.2l1.4.071a1.958 1.958 0 0 0 2.058-2.06L6.2 2.81A1.959 1.959 0 0 1 9.606 1.4z" fill="none" stroke-linecap="round" stroke-linejoin="round" stroke-width="1.5"></path><path d="M7.5 12.001a4.5 4.5 0 1 0 9 0 4.5 4.5 0 1 0-9 0z" fill="none" stroke-linecap="round" stroke-linejoin="round" stroke-width="1.5"></path></g></symbol>
    <symbol id="plyr-volume" viewBox="0 0 18 18" fill="currentColor" stroke="currentColor"><g transform="matrix(0.75,0,0,0.75,0,0)"><path d="M6.571 9H2.25a.75.75 0 0 0-.75.75v4.5a.75.75 0 0 0 .75.75h4.321a8.254 8.254 0 0 0 6.854 5.209.751.751 0 0 0 .825-.746V4.537a.75.75 0 0 0-.825-.746A8.254 8.254 0 0 0 6.571 9zm14.892 6.55a6.595 6.595 0 0 0 0-7.1m-2.901 5.791a3.491 3.491 0 0 0 0-4.4" fill="none" stroke-linecap="round" stroke-linejoin="round" stroke-width="1.5"></path></g></symbol>
</svg>
