<svg viewBox="0 0 900 600" preserveAspectRatio="none" xmlns="http://www.w3.org/2000/svg" xmlns:xlink="http://www.w3.org/1999/xlink" version="1.1" x-data>
    <path d="M616 600L616 583.3C616 566.7 616 533.3 607.7 500C599.3 466.7 582.7 433.3 582.5 400C582.3 366.7 598.7 333.3 607.7 300C616.7 266.7 618.3 233.3 607.5 200C596.7 166.7 573.3 133.3 568.2 100C563 66.7 576 33.3 582.5 16.7L589 0L900 0L900 16.7C900 33.3 900 66.7 900 100C900 133.3 900 166.7 900 200C900 233.3 900 266.7 900 300C900 333.3 900 366.7 900 400C900 433.3 900 466.7 900 500C900 533.3 900 566.7 900 583.3L900 600Z" :fill="$store.ui.colors[0]"></path>
    <path d="M687 600L677.7 583.3C668.3 566.7 649.7 533.3 638.5 500C627.3 466.7 623.7 433.3 627.7 400C631.7 366.7 643.3 333.3 645 300C646.7 266.7 638.3 233.3 631.3 200C624.3 166.7 618.7 133.3 619.3 100C620 66.7 627 33.3 630.5 16.7L634 0L900 0L900 16.7C900 33.3 900 66.7 900 100C900 133.3 900 166.7 900 200C900 233.3 900 266.7 900 300C900 333.3 900 366.7 900 400C900 433.3 900 466.7 900 500C900 533.3 900 566.7 900 583.3L900 600Z" :fill="$store.ui.colors[1]"></path>
    <path d="M712 600L706.7 583.3C701.3 566.7 690.7 533.3 694 500C697.3 466.7 714.7 433.3 724.5 400C734.3 366.7 736.7 333.3 736.8 300C737 266.7 735 233.3 725.3 200C715.7 166.7 698.3 133.3 690 100C681.7 66.7 682.3 33.3 682.7 16.7L683 0L900 0L900 16.7C900 33.3 900 66.7 900 100C900 133.3 900 166.7 900 200C900 233.3 900 266.7 900 300C900 333.3 900 366.7 900 400C900 433.3 900 466.7 900 500C900 533.3 900 566.7 900 583.3L900 600Z" :fill="$store.ui.colors[2]"></path>
    <path d="M737 600L739.3 583.3C741.7 566.7 746.3 533.3 746.7 500C747 466.7 743 433.3 743.2 400C743.3 366.7 747.7 333.3 757.8 300C768 266.7 784 233.3 792 200C800 166.7 800 133.3 792.5 100C785 66.7 770 33.3 762.5 16.7L755 0L900 0L900 16.7C900 33.3 900 66.7 900 100C900 133.3 900 166.7 900 200C900 233.3 900 266.7 900 300C900 333.3 900 366.7 900 400C900 433.3 900 466.7 900 500C900 533.3 900 566.7 900 583.3L900 600Z" :fill="$store.ui.colors[3]"></path>
    <path d="M813 600L818.3 583.3C823.7 566.7 834.3 533.3 838.5 500C842.7 466.7 840.3 433.3 835.8 400C831.3 366.7 824.7 333.3 821 300C817.3 266.7 816.7 233.3 815 200C813.3 166.7 810.7 133.3 814.7 100C818.7 66.7 829.3 33.3 834.7 16.7L840 0L900 0L900 16.7C900 33.3 900 66.7 900 100C900 133.3 900 166.7 900 200C900 233.3 900 266.7 900 300C900 333.3 900 366.7 900 400C900 433.3 900 466.7 900 500C900 533.3 900 566.7 900 583.3L900 600Z" :fill="$store.ui.colors[4]"></path>
</svg>
